<svg xmlns="http://www.w3.org/2000/svg" width="512" height="512" viewBox="0 0 512 512" role="img"><defs><linearGradient id="bg" x1="0" y1="0" x2="1" y2="1"><stop offset="0" stop-color="#121827"/><stop offset="1" stop-color="#081317"/></linearGradient><linearGradient id="accent" x1="0" y1="0" x2="1" y2="1"><stop offset="0" stop-color="#5fd3c8"/><stop offset="1" stop-color="#8ce29a"/></linearGradient></defs><rect width="512" height="512" rx="56" fill="url(#bg)"/><circle cx="424" cy="88" r="88" fill="#5fd3c8" opacity=".09"/><circle cx="94" cy="430" r="118" fill="#8ce29a" opacity=".08"/><rect x="179" y="91" width="154" height="274" rx="33" fill="#141d2c" stroke="url(#accent)" stroke-width="8"/><rect x="202" y="128" width="108" height="85" rx="13" fill="#0b0f16" stroke="#5fd3c8" stroke-width="6"/><circle cx="256" cy="279" r="39" fill="none" stroke="#8ce29a" stroke-width="8"/><circle cx="256" cy="279" r="10" fill="#8ce29a"/><path d="M200 64c33-28 79-28 112 0M166 38c52-48 128-48 180 0" fill="none" stroke="#5fd3c8" opacity=".6" stroke-width="12" stroke-linecap="round"/><rect x="36" y="378" width="440" height="92" rx="24" fill="#0b0f16" opacity=".88" stroke="#203040"/><text x="58" y="420" fill="#e4e8f0" font-family="Inter, Arial, sans-serif" font-size="27" font-weight="700">Satellite messenger</text><text x="58" y="450" fill="#9aa0b5" font-family="Inter, Arial, sans-serif" font-size="17">SOS / off-grid check-ins</text></svg>