<svg xmlns="http://www.w3.org/2000/svg" width="512" height="512" viewBox="0 0 512 512" role="img"><defs><linearGradient id="bg" x1="0" y1="0" x2="1" y2="1"><stop offset="0" stop-color="#121827"/><stop offset="1" stop-color="#081317"/></linearGradient><linearGradient id="accent" x1="0" y1="0" x2="1" y2="1"><stop offset="0" stop-color="#5fd3c8"/><stop offset="1" stop-color="#8ce29a"/></linearGradient></defs><rect width="512" height="512" rx="56" fill="url(#bg)"/><circle cx="424" cy="88" r="88" fill="#5fd3c8" opacity=".09"/><circle cx="94" cy="430" r="118" fill="#8ce29a" opacity=".08"/><rect x="138" y="123" width="236" height="235" rx="30" fill="#141d2c" stroke="url(#accent)" stroke-width="8"/><path d="M171 174h170M171 222h170M171 270h170" stroke="#5fd3c8" stroke-width="9" stroke-linecap="round" opacity=".75"/><circle cx="256" cy="312" r="25" fill="none" stroke="#8ce29a" stroke-width="8"/><path d="M98 115c-42 64-42 134 0 198M414 115c42 64 42 134 0 198" fill="none" stroke="#5fd3c8" opacity=".28" stroke-width="13" stroke-linecap="round"/><rect x="36" y="378" width="440" height="92" rx="24" fill="#0b0f16" opacity=".88" stroke="#203040"/><text x="58" y="420" fill="#e4e8f0" font-family="Inter, Arial, sans-serif" font-size="27" font-weight="700">Premium Faraday gear</text><text x="58" y="450" fill="#9aa0b5" font-family="Inter, Arial, sans-serif" font-size="17">Lab-style signal blocking</text></svg>