<svg xmlns="http://www.w3.org/2000/svg" width="512" height="512" viewBox="0 0 512 512" role="img"><defs><linearGradient id="bg" x1="0" y1="0" x2="1" y2="1"><stop offset="0" stop-color="#121827"/><stop offset="1" stop-color="#081317"/></linearGradient><linearGradient id="accent" x1="0" y1="0" x2="1" y2="1"><stop offset="0" stop-color="#5fd3c8"/><stop offset="1" stop-color="#8ce29a"/></linearGradient></defs><rect width="512" height="512" rx="56" fill="url(#bg)"/><circle cx="424" cy="88" r="88" fill="#5fd3c8" opacity=".09"/><circle cx="94" cy="430" r="118" fill="#8ce29a" opacity=".08"/><path d="M153 109h163c26 0 43 17 43 43v207H196c-26 0-43-17-43-43V109z" fill="#141d2c" stroke="url(#accent)" stroke-width="8"/><path d="M196 109v250" stroke="#5fd3c8" stroke-width="7"/><path d="M225 173h93M225 215h76M225 257h102" stroke="#8ce29a" stroke-width="9" stroke-linecap="round"/><circle cx="274" cy="313" r="25" fill="none" stroke="#5fd3c8" stroke-width="7"/><rect x="36" y="378" width="440" height="92" rx="24" fill="#0b0f16" opacity=".88" stroke="#203040"/><text x="58" y="420" fill="#e4e8f0" font-family="Inter, Arial, sans-serif" font-size="27" font-weight="700">Privacy handbook</text><text x="58" y="450" fill="#9aa0b5" font-family="Inter, Arial, sans-serif" font-size="17">Home-address decoupling</text></svg>