<svg xmlns="http://www.w3.org/2000/svg" width="512" height="512" viewBox="0 0 512 512" role="img"><defs><linearGradient id="bg" x1="0" y1="0" x2="1" y2="1"><stop offset="0" stop-color="#121827"/><stop offset="1" stop-color="#081317"/></linearGradient><linearGradient id="accent" x1="0" y1="0" x2="1" y2="1"><stop offset="0" stop-color="#5fd3c8"/><stop offset="1" stop-color="#8ce29a"/></linearGradient></defs><rect width="512" height="512" rx="56" fill="url(#bg)"/><circle cx="424" cy="88" r="88" fill="#5fd3c8" opacity=".09"/><circle cx="94" cy="430" r="118" fill="#8ce29a" opacity=".08"/><path d="M157 151h198l28 202H129l28-202z" fill="#141d2c" stroke="url(#accent)" stroke-width="8"/><path d="M185 151c8-62 134-62 142 0" fill="none" stroke="#5fd3c8" stroke-width="12"/><rect x="193" y="206" width="126" height="79" rx="18" fill="#0b0f16" stroke="#8ce29a" stroke-width="7"/><path d="M126 120c-37 42-37 95 0 138M386 120c37 42 37 95 0 138" fill="none" stroke="#5fd3c8" opacity=".35" stroke-width="12" stroke-linecap="round"/><rect x="36" y="378" width="440" height="92" rx="24" fill="#0b0f16" opacity=".88" stroke="#203040"/><text x="58" y="420" fill="#e4e8f0" font-family="Inter, Arial, sans-serif" font-size="27" font-weight="700">Faraday bag</text><text x="58" y="450" fill="#9aa0b5" font-family="Inter, Arial, sans-serif" font-size="17">Phone / fob / passport shield</text></svg>